<svg xmlns="http://www.w3.org/2000/svg" viewBox="0 0 54.306 54.306">
  <g fill="#010002">
    <path d="M27.153 13.141c-10.371 0-19.419 5.638-24.265 14.012 4.846 8.374 13.894 14.012 24.265 14.012s19.419-5.638 24.265-14.012c-4.846-8.374-13.894-14.012-24.265-14.012z"/>
    <path d="M27.153 43.665c-10.854 0-20.981-5.848-26.428-15.26L0 27.153l.724-1.252c5.447-9.413 15.574-15.26 26.429-15.26 10.854 0 20.981 5.847 26.429 15.26l.725 1.252-.725 1.252c-5.448 9.413-15.575 15.26-26.429 15.26zM5.826 27.153c4.701 7.136 12.743 11.512 21.327 11.512 8.585 0 16.626-4.376 21.327-11.512-4.701-7.136-12.742-11.512-21.327-11.512S10.527 20.017 5.826 27.153z"/>
    <circle cx="28.076" cy="26.343" r="12.188"/>
    <path d="M28.076 41.031c-8.099 0-14.688-6.589-14.688-14.688s6.589-14.688 14.688-14.688 14.688 6.589 14.688 14.688-6.589 14.688-14.688 14.688zm0-24.376c-5.342 0-9.688 4.346-9.688 9.688s4.346 9.688 9.688 9.688c5.342 0 9.688-4.346 9.688-9.688s-4.346-9.688-9.688-9.688z"/>
    <circle cx="33.513" cy="22.516" r="5.375"/>
  </g>
</svg>
